<?xml version="1.0" encoding="UTF-8"?>
<svg width="135px" height="19px" viewBox="0 0 135 19" version="1.1" xmlns="http://www.w3.org/2000/svg" xmlns:xlink="http://www.w3.org/1999/xlink">
    <!-- Generator: Sketch 43.1 (39012) - http://www.bohemiancoding.com/sketch -->
    <title>Group 5</title>
    <desc>Created with Sketch.</desc>
    <defs></defs>
    <g id="Symbols" stroke="none" stroke-width="1" fill="none" fill-rule="evenodd">
        <g id="Site-/-Footer" transform="translate(-1455.000000, -78.000000)" fill="#8A8F99">
            <g id="Atticul-logo" transform="translate(1455.000000, 78.000000)">
                <g id="Group-7">
                    <g id="Group-5">
                        <path d="M93.4421502,10.8528672 L93.4421502,10.2660638 C93.4421502,9.01195046 94.1610033,8.42783061 95.7067948,8.42604158 C97.2560175,8.42604158 97.973155,9.01195046 97.973155,10.2660638 L97.9757284,10.8528672 L93.4421502,10.8528672 Z M99.8380555,6.93309208 C98.8198232,6.10476899 97.4009891,5.66645547 95.7127995,5.66645547 C94.02461,5.66645547 92.5963398,6.10476899 91.5772498,6.93309208 C90.5650223,7.75604806 90.0297427,8.90908096 90.0297427,10.2660638 L90.0297427,13.8333991 C90.0297427,15.190382 90.5650223,16.3434149 91.5772498,17.1672654 C92.5963398,17.9955884 94.02461,18.433902 95.7127995,18.433902 L99.8380555,18.433902 L99.1071929,15.6725268 L95.7067948,15.6725268 C94.1610033,15.6725268 93.4421502,15.0848289 93.4421502,13.8333991 L93.4421502,13.390613 L101.384705,13.390613 L101.384705,10.2660638 C101.384705,8.90908096 100.851141,7.75604806 99.8380555,6.93309208 Z" id="Fill-2"></path>
                        <path d="M131.004883,15.672169 L128.135475,15.672169 L128.135475,15.6685909 C127.053764,15.6668019 126.550224,15.4217042 126.550224,14.5307648 C126.550224,13.6407201 127.053764,13.3902552 128.135475,13.3902552 L131.004883,13.3902552 L131.004883,15.672169 Z M132.868068,7.37999296 C131.849836,6.55166987 130.41985,6.11335636 128.732518,6.11335636 L124.310456,6.11335636 L125.042177,8.87294246 L128.737665,8.87294246 C130.285172,8.87473149 131.004883,9.45974585 131.004883,10.7129647 L131.004883,10.8525094 L127.083788,10.8560875 C124.284722,10.8560875 123.110366,12.6156032 123.110366,14.6452631 C123.110366,16.9191262 124.539494,18.4335442 127.083788,18.4335442 L134.415575,18.4335442 L134.415575,10.7129647 C134.415575,9.35598184 133.880295,8.20294894 132.868068,7.37999296 L132.868068,7.37999296 Z" id="Fill-4"></path>
                        <path d="M111.397264,15.672169 L109.12061,15.672169 C107.573103,15.672169 106.85425,15.0853656 106.85425,13.8330413 L106.85425,10.7129647 C106.85425,9.46153489 107.573103,8.87473149 109.12061,8.87473149 L111.397264,8.87294246 L111.397264,15.672169 Z M114.801094,1.55847388 L111.39898,0.576293807 L111.397264,6.11335636 L109.126615,6.11335636 C107.439283,6.11335636 106.007582,6.55166987 104.991923,7.37999296 C103.977122,8.20294894 103.4427,9.35598184 103.4427,10.7129647 L103.4427,13.8330413 C103.4427,15.1900242 103.977122,16.3430571 104.991923,17.1669076 C106.007582,17.9961252 107.439283,18.4335442 109.126615,18.4335442 L114.806241,18.4335442 L114.801094,1.55847388 Z" id="Fill-6"></path>
                        <polygon id="Fill-10" points="117.564303 18.4338125 120.972422 18.4338125 120.972422 6.11451923 117.564303 6.11451923"></polygon>
                        <path d="M86.6583389,6.80043515 C85.7499076,6.05977476 84.2581588,5.66439808 82.7552583,5.65455839 L82.7269502,5.65455839 L82.7012156,5.65455839 C81.356154,5.66439808 79.7228649,6.22526048 79.0992299,6.99543994 C78.579391,6.27356442 76.845737,5.66439808 75.5015332,5.65455839 L75.5015332,5.65276936 C75.4920972,5.65276936 75.483519,5.65455839 75.4732251,5.65455839 C75.4646469,5.65455839 75.4560687,5.65276936 75.4474905,5.65276936 L75.4474905,5.65455839 C73.9428744,5.66439808 72.4528412,6.05798573 71.5418365,6.80043515 C70.6265427,7.54646264 70.1418744,8.58857538 70.1418744,9.81764225 L70.1418744,18.4318446 L73.5534242,18.4318446 L73.5534242,9.81764225 C73.5534242,8.86945384 74.311737,8.42398419 75.4749408,8.4195116 C76.6372867,8.42398419 77.3947417,8.86855932 77.3947417,9.81406419 L77.3947417,9.81764225 L77.3947417,18.4318446 L80.8062915,18.4318446 L80.8062915,9.81764225 C80.8062915,8.86945384 81.5646043,8.42398419 82.7269502,8.4195116 C83.8910118,8.42398419 84.647609,8.86945384 84.647609,9.81764225 L84.6458934,18.4336336 L88.0591588,18.4336336 L88.0591588,9.81764225 C88.0591588,8.59036442 87.5753483,7.54646264 86.6583389,6.80043515" id="Fill-12"></path>
                        <path d="M44.6586185,6.1129091 C42.9712867,6.1129091 41.5395853,6.55122261 40.5222109,7.38044022 C39.5099834,8.2033962 38.973846,9.3564291 38.973846,10.713412 L38.973846,13.8343831 C38.973846,15.1904714 39.5099834,16.3443988 40.5222109,17.1664603 C41.5395853,17.9956779 42.9712867,18.4330969 44.6586185,18.4330969 L48.4681967,18.4330969 L48.4681967,15.6726163 L44.6526137,15.6726163 C43.1051066,15.6726163 42.3871114,15.0849184 42.3871114,13.8343831 L42.3871114,10.713412 C42.3871114,9.46198215 43.1051066,8.87517875 44.6526137,8.87517875 L48.4681967,8.87338971 L49.1990592,6.1129091 L44.6586185,6.1129091 Z" id="Fill-13"></path>
                        <path d="M8.60633507,15.672169 L5.73692749,15.672169 L5.73692749,15.6685909 C4.65521659,15.6668019 4.15081848,15.4217042 4.15081848,14.5307648 C4.15081848,13.6407201 4.65521659,13.3902552 5.73692749,13.3902552 L8.60633507,13.3902552 L8.60633507,15.672169 Z M10.4695199,7.37999296 C9.45128768,6.55166987 8.0213019,6.11335636 6.33397014,6.11335636 L1.91190853,6.11335636 L2.64362891,8.87294246 L6.33911706,8.87294246 C7.88576635,8.87473149 8.60633507,9.45974585 8.60633507,10.7129647 L8.60633507,10.8525094 L4.68524028,10.8560875 C1.88617393,10.8560875 0.710960664,12.6156032 0.710960664,14.6452631 C0.710960664,16.9191262 2.14094645,18.4335442 4.68524028,18.4335442 L12.017027,18.4335442 L12.017027,10.7129647 C12.017027,9.35598184 11.4817474,8.20294894 10.4695199,7.37999296 L10.4695199,7.37999296 Z" id="Fill-14"></path>
                        <polygon id="Fill-16" points="33.5176825 18.4338125 36.9258009 18.4338125 36.9258009 6.11451923 33.5176825 6.11451923"></polygon>
                        <path d="M58.6711066,14.2788688 C58.6711066,15.5186698 57.9248033,16.1197855 56.3953104,16.1197855 C54.2902204,16.1197855 54.125519,14.7100261 54.125519,14.2788688 L54.125519,6.11281964 L50.7174005,6.11281964 L50.7174005,14.2788688 C50.7174005,16.943636 53.1047133,18.8811606 56.3953104,18.8811606 C59.7939929,18.8811606 62.0800829,17.0321932 62.0800829,14.2788688 L62.0800829,6.11281964 L58.6711066,6.11281964 L58.6711066,14.2788688 Z" id="Fill-17"></path>
                        <path d="M19.6311223,6.1129091 C17.9437905,6.1129091 16.5155204,6.55122261 15.4964303,7.38044022 C14.4842028,8.2033962 13.9480654,9.3564291 13.9480654,10.713412 L13.9480654,18.4330969 L17.3544682,18.4330969 L17.3613308,10.713412 C17.3613308,9.46198215 18.0793261,8.87517875 19.6259754,8.87517875 L21.3338948,8.87338971 L22.0673308,6.1129091 L19.6311223,6.1129091 Z" id="Fill-18"></path>
                        <path d="M30.9661829,15.6739581 L29.2582635,15.672169 C27.712472,15.672169 26.993619,15.0853656 26.993619,13.8339358 L26.9910455,8.87294246 L30.8984152,8.87294246 L30.8984152,6.11335636 L26.9893299,6.11335636 L26.9867564,0.576293807 L23.5803536,1.56026292 L23.5803536,13.8339358 C23.5803536,15.1909187 24.116491,16.3439516 25.1287185,17.1669076 C26.1469507,17.9961252 27.5760787,18.4335442 29.2642682,18.4335442 L31.699619,18.4335442 L30.9661829,15.6739581 Z" id="Fill-19"></path>
                        <path d="M67.4566408,13.968829 L67.4566408,0.574325869 L64.045091,1.56008402 L64.045091,13.968829 C64.045091,15.3276009 64.5803706,16.4806338 65.5925981,17.3018008 C66.2874322,17.8689248 67.1787071,18.2455166 68.208091,18.4333653 L68.208091,15.4823524 C67.7062664,15.1871617 67.4566408,14.6933881 67.4566408,13.968829" id="Fill-20"></path>
                        <path d="M119.265532,0.575488741 C118.201835,0.575488741 117.335437,1.47000612 117.335437,2.57652411 L117.335437,2.60872673 C117.335437,3.71435021 118.201835,4.60886758 119.265532,4.60886758 C120.335233,4.60886758 121.200773,3.71435021 121.200773,2.60872673 L121.200773,2.57652411 C121.200773,1.47000612 120.335233,0.575488741 119.265532,0.575488741" id="Fill-8"></path>
                        <path d="M35.2188251,0.575488741 C34.1542706,0.575488741 33.2887303,1.47000612 33.2887303,2.57652411 L33.2887303,2.60872673 C33.2887303,3.71435021 34.1542706,4.60886758 35.2188251,4.60886758 C36.2876687,4.60886758 37.153209,3.71435021 37.153209,2.60872673 L37.153209,2.57652411 C37.153209,1.47000612 36.2876687,0.575488741 35.2188251,0.575488741" id="Fill-15"></path>
                    </g>
                </g>
            </g>
        </g>
    </g>
</svg>